{
	"asset":{
		"generator":"Khronos glTF Blender I/O v4.3.47",
		"version":"2.0"
	},
	"scene":0,
	"scenes":[
		{
			"name":"Scene",
			"nodes":[
				0,
				1,
				2,
				3,
				4,
				5,
				6,
				7,
				8,
				9
			]
		}
	],
	"nodes":[
		{
			"mesh":0,
			"name":"Turm",
			"translation":[
				0,
				1.0949684381484985,
				0
			]
		},
		{
			"mesh":1,
			"name":"Stempen",
			"rotation":[
				0.6830127239227295,
				-0.1830126941204071,
				-0.1830126941204071,
				0.6830126643180847
			],
			"scale":[
				0.1318271905183792,
				0.0908970832824707,
				0.1318271905183792
			],
			"translation":[
				0,
				2.7842061519622803,
				1.0538753271102905
			]
		},
		{
			"mesh":2,
			"name":"Rad-02",
			"scale":[
				0.02801857702434063,
				0.07820399850606918,
				0.01246323436498642
			],
			"translation":[
				-0.0052902912721037865,
				2.9765758514404297,
				1.1680434942245483
			]
		},
		{
			"mesh":3,
			"name":"Rad-01",
			"rotation":[
				0,
				0,
				-0.869461715221405,
				0.4940004050731659
			],
			"scale":[
				0.028018580749630928,
				0.07820399850606918,
				0.01246323436498642
			],
			"translation":[
				0.1678762435913086,
				2.6910266876220703,
				1.1680434942245483
			]
		},
		{
			"mesh":4,
			"name":"Rad-03",
			"rotation":[
				0,
				0,
				0.8677302598953247,
				0.4970354437828064
			],
			"scale":[
				0.02801857888698578,
				0.07820399850606918,
				0.01246323436498642
			],
			"translation":[
				-0.1665821075439453,
				2.6876158714294434,
				1.1680434942245483
			]
		},
		{
			"mesh":5,
			"name":"Tuer",
			"rotation":[
				0,
				-0.0387980118393898,
				-0.9992470741271973,
				0
			],
			"scale":[
				-0.23832936584949493,
				-0.2952052056789398,
				-0.019906705245375633
			],
			"translation":[
				0,
				0.3798399567604065,
				0.9668008089065552
			]
		},
		{
			"mesh":6,
			"name":"TuerKnopf",
			"scale":[
				0.02898937091231346,
				0.007487849332392216,
				0.006128555629402399
			],
			"translation":[
				0.16113439202308655,
				0.4264419674873352,
				0.9886894822120667
			]
		},
		{
			"mesh":7,
			"name":"Fenster01",
			"rotation":[
				0,
				0.4335588812828064,
				0,
				0.9011252522468567
			],
			"scale":[
				0.18511301279067993,
				0.1403796672821045,
				0.021119829267263412
			],
			"translation":[
				0.7749710083007812,
				2.8616533279418945,
				0.6143501996994019
			]
		},
		{
			"mesh":8,
			"name":"Fenster01.001",
			"rotation":[
				0,
				-0.43493008613586426,
				0,
				0.9004642367362976
			],
			"scale":[
				0.18511301279067993,
				0.1403796672821045,
				0.021119827404618263
			],
			"translation":[
				-0.7856249809265137,
				2.8616533279418945,
				0.6005148887634277
			]
		},
		{
			"mesh":9,
			"name":"Dach",
			"translation":[
				0,
				3.6562676429748535,
				0
			]
		}
	],
	"materials":[
		{
			"doubleSided":true,
			"name":"tower",
			"pbrMetallicRoughness":{
				"baseColorTexture":{
					"index":0
				},
				"metallicFactor":0,
				"roughnessFactor":0.5
			}
		},
		{
			"doubleSided":true,
			"name":"Dach",
			"pbrMetallicRoughness":{
				"baseColorTexture":{
					"index":1
				},
				"metallicFactor":0,
				"roughnessFactor":0.5
			}
		},
		{
			"doubleSided":true,
			"name":"red",
			"pbrMetallicRoughness":{
				"baseColorFactor":[
					1,
					0,
					0,
					1
				],
				"metallicFactor":0,
				"roughnessFactor":0.5
			}
		},
		{
			"doubleSided":true,
			"name":"blue",
			"pbrMetallicRoughness":{
				"baseColorFactor":[
					0,
					0,
					1,
					1
				],
				"metallicFactor":0,
				"roughnessFactor":0.5
			}
		},
		{
			"doubleSided":true,
			"name":"green",
			"pbrMetallicRoughness":{
				"baseColorFactor":[
					0,
					1,
					0,
					1
				],
				"metallicFactor":0,
				"roughnessFactor":0.5
			}
		},
		{
			"doubleSided":true,
			"name":"henkel",
			"pbrMetallicRoughness":{
				"baseColorFactor":[
					0.442588210105896,
					0.442588210105896,
					0.442588210105896,
					1
				],
				"roughnessFactor":0.5
			}
		},
		{
			"doubleSided":true,
			"name":"Window",
			"pbrMetallicRoughness":{
				"baseColorTexture":{
					"index":2
				},
				"metallicFactor":0,
				"roughnessFactor":0.5
			}
		}
	],
	"meshes":[
		{
			"name":"Cylinder.003",
			"primitives":[
				{
					"attributes":{
						"POSITION":0,
						"NORMAL":1,
						"TEXCOORD_0":2
					},
					"indices":3,
					"material":0
				}
			]
		},
		{
			"name":"Cylinder.004",
			"primitives":[
				{
					"attributes":{
						"POSITION":4,
						"NORMAL":5,
						"TEXCOORD_0":6
					},
					"indices":7,
					"material":1
				}
			]
		},
		{
			"name":"Cube",
			"primitives":[
				{
					"attributes":{
						"POSITION":8,
						"NORMAL":9,
						"TEXCOORD_0":10
					},
					"indices":11,
					"material":2
				}
			]
		},
		{
			"name":"Cube.001",
			"primitives":[
				{
					"attributes":{
						"POSITION":12,
						"NORMAL":13,
						"TEXCOORD_0":14
					},
					"indices":11,
					"material":3
				}
			]
		},
		{
			"name":"Cube.002",
			"primitives":[
				{
					"attributes":{
						"POSITION":15,
						"NORMAL":16,
						"TEXCOORD_0":17
					},
					"indices":11,
					"material":4
				}
			]
		},
		{
			"name":"Cube.003",
			"primitives":[
				{
					"attributes":{
						"POSITION":18,
						"NORMAL":19,
						"TEXCOORD_0":20
					},
					"indices":21,
					"material":1
				}
			]
		},
		{
			"name":"Cube.004",
			"primitives":[
				{
					"attributes":{
						"POSITION":22,
						"NORMAL":23,
						"TEXCOORD_0":24
					},
					"indices":25,
					"material":5
				}
			]
		},
		{
			"name":"Cube.005",
			"primitives":[
				{
					"attributes":{
						"POSITION":26,
						"NORMAL":27,
						"TEXCOORD_0":28
					},
					"indices":29,
					"material":6
				}
			]
		},
		{
			"name":"Cube.006",
			"primitives":[
				{
					"attributes":{
						"POSITION":30,
						"NORMAL":31,
						"TEXCOORD_0":32
					},
					"indices":29,
					"material":6
				}
			]
		},
		{
			"name":"Cylinder.005",
			"primitives":[
				{
					"attributes":{
						"POSITION":33,
						"NORMAL":34,
						"TEXCOORD_0":35
					},
					"indices":36,
					"material":1
				}
			]
		}
	],
	"textures":[
		{
			"sampler":0,
			"source":0
		},
		{
			"sampler":0,
			"source":1
		},
		{
			"sampler":0,
			"source":2
		}
	],
	"images":[
		{
			"mimeType":"image/png",
			"name":"turm",
			"uri":"turm.png"
		},
		{
			"mimeType":"image/png",
			"name":"Dach",
			"uri":"Dach.png"
		},
		{
			"mimeType":"image/png",
			"name":"Fenster",
			"uri":"Fenster.png"
		}
	],
	"accessors":[
		{
			"bufferView":0,
			"componentType":5126,
			"count":73,
			"max":[
				1.134346604347229,
				2.013909339904785,
				1.0482938289642334
			],
			"min":[
				-1.134346604347229,
				-1,
				-1.1635184288024902
			],
			"type":"VEC3"
		},
		{
			"bufferView":1,
			"componentType":5126,
			"count":73,
			"type":"VEC3"
		},
		{
			"bufferView":2,
			"componentType":5126,
			"count":73,
			"type":"VEC2"
		},
		{
			"bufferView":3,
			"componentType":5123,
			"count":264,
			"type":"SCALAR"
		},
		{
			"bufferView":4,
			"componentType":5126,
			"count":36,
			"max":[
				0.8660253882408142,
				1.6946897506713867,
				1
			],
			"min":[
				-0.8660253882408142,
				-1,
				-1
			],
			"type":"VEC3"
		},
		{
			"bufferView":5,
			"componentType":5126,
			"count":36,
			"type":"VEC3"
		},
		{
			"bufferView":6,
			"componentType":5126,
			"count":36,
			"type":"VEC2"
		},
		{
			"bufferView":7,
			"componentType":5123,
			"count":60,
			"type":"SCALAR"
		},
		{
			"bufferView":8,
			"componentType":5126,
			"count":232,
			"max":[
				17.01308822631836,
				24.771459579467773,
				1
			],
			"min":[
				-1,
				-1,
				-1.0000005960464478
			],
			"type":"VEC3"
		},
		{
			"bufferView":9,
			"componentType":5126,
			"count":232,
			"type":"VEC3"
		},
		{
			"bufferView":10,
			"componentType":5126,
			"count":232,
			"type":"VEC2"
		},
		{
			"bufferView":11,
			"componentType":5123,
			"count":516,
			"type":"SCALAR"
		},
		{
			"bufferView":12,
			"componentType":5126,
			"count":232,
			"max":[
				17.01308822631836,
				24.771459579467773,
				1
			],
			"min":[
				-1,
				-1,
				-1.0000005960464478
			],
			"type":"VEC3"
		},
		{
			"bufferView":13,
			"componentType":5126,
			"count":232,
			"type":"VEC3"
		},
		{
			"bufferView":14,
			"componentType":5126,
			"count":232,
			"type":"VEC2"
		},
		{
			"bufferView":15,
			"componentType":5126,
			"count":232,
			"max":[
				17.01308822631836,
				24.771459579467773,
				1
			],
			"min":[
				-1,
				-1,
				-1.0000005960464478
			],
			"type":"VEC3"
		},
		{
			"bufferView":16,
			"componentType":5126,
			"count":232,
			"type":"VEC3"
		},
		{
			"bufferView":17,
			"componentType":5126,
			"count":232,
			"type":"VEC2"
		},
		{
			"bufferView":18,
			"componentType":5126,
			"count":48,
			"max":[
				1,
				1.5003516674041748,
				7.485692977905273
			],
			"min":[
				-1,
				-0.9733147025108337,
				-1.0307765007019043
			],
			"type":"VEC3"
		},
		{
			"bufferView":19,
			"componentType":5126,
			"count":48,
			"type":"VEC3"
		},
		{
			"bufferView":20,
			"componentType":5126,
			"count":48,
			"type":"VEC2"
		},
		{
			"bufferView":21,
			"componentType":5123,
			"count":144,
			"type":"SCALAR"
		},
		{
			"bufferView":22,
			"componentType":5126,
			"count":24,
			"max":[
				1,
				1,
				1
			],
			"min":[
				-1,
				-1,
				-1
			],
			"type":"VEC3"
		},
		{
			"bufferView":23,
			"componentType":5126,
			"count":24,
			"type":"VEC3"
		},
		{
			"bufferView":24,
			"componentType":5126,
			"count":24,
			"type":"VEC2"
		},
		{
			"bufferView":25,
			"componentType":5123,
			"count":36,
			"type":"SCALAR"
		},
		{
			"bufferView":26,
			"componentType":5126,
			"count":138,
			"max":[
				1,
				1,
				1
			],
			"min":[
				-1,
				-1,
				-1
			],
			"type":"VEC3"
		},
		{
			"bufferView":27,
			"componentType":5126,
			"count":138,
			"type":"VEC3"
		},
		{
			"bufferView":28,
			"componentType":5126,
			"count":138,
			"type":"VEC2"
		},
		{
			"bufferView":29,
			"componentType":5123,
			"count":288,
			"type":"SCALAR"
		},
		{
			"bufferView":30,
			"componentType":5126,
			"count":138,
			"max":[
				1,
				1,
				1
			],
			"min":[
				-1,
				-1,
				-1
			],
			"type":"VEC3"
		},
		{
			"bufferView":31,
			"componentType":5126,
			"count":138,
			"type":"VEC3"
		},
		{
			"bufferView":32,
			"componentType":5126,
			"count":138,
			"type":"VEC2"
		},
		{
			"bufferView":33,
			"componentType":5126,
			"count":49,
			"max":[
				1.1341007947921753,
				0.9346270561218262,
				1.0480667352676392
			],
			"min":[
				-1.1341007947921753,
				-0.5473899841308594,
				-1.1632663011550903
			],
			"type":"VEC3"
		},
		{
			"bufferView":34,
			"componentType":5126,
			"count":49,
			"type":"VEC3"
		},
		{
			"bufferView":35,
			"componentType":5126,
			"count":49,
			"type":"VEC2"
		},
		{
			"bufferView":36,
			"componentType":5123,
			"count":240,
			"type":"SCALAR"
		}
	],
	"bufferViews":[
		{
			"buffer":0,
			"byteLength":876,
			"byteOffset":0,
			"target":34962
		},
		{
			"buffer":0,
			"byteLength":876,
			"byteOffset":876,
			"target":34962
		},
		{
			"buffer":0,
			"byteLength":584,
			"byteOffset":1752,
			"target":34962
		},
		{
			"buffer":0,
			"byteLength":528,
			"byteOffset":2336,
			"target":34963
		},
		{
			"buffer":0,
			"byteLength":432,
			"byteOffset":2864,
			"target":34962
		},
		{
			"buffer":0,
			"byteLength":432,
			"byteOffset":3296,
			"target":34962
		},
		{
			"buffer":0,
			"byteLength":288,
			"byteOffset":3728,
			"target":34962
		},
		{
			"buffer":0,
			"byteLength":120,
			"byteOffset":4016,
			"target":34963
		},
		{
			"buffer":0,
			"byteLength":2784,
			"byteOffset":4136,
			"target":34962
		},
		{
			"buffer":0,
			"byteLength":2784,
			"byteOffset":6920,
			"target":34962
		},
		{
			"buffer":0,
			"byteLength":1856,
			"byteOffset":9704,
			"target":34962
		},
		{
			"buffer":0,
			"byteLength":1032,
			"byteOffset":11560,
			"target":34963
		},
		{
			"buffer":0,
			"byteLength":2784,
			"byteOffset":12592,
			"target":34962
		},
		{
			"buffer":0,
			"byteLength":2784,
			"byteOffset":15376,
			"target":34962
		},
		{
			"buffer":0,
			"byteLength":1856,
			"byteOffset":18160,
			"target":34962
		},
		{
			"buffer":0,
			"byteLength":2784,
			"byteOffset":20016,
			"target":34962
		},
		{
			"buffer":0,
			"byteLength":2784,
			"byteOffset":22800,
			"target":34962
		},
		{
			"buffer":0,
			"byteLength":1856,
			"byteOffset":25584,
			"target":34962
		},
		{
			"buffer":0,
			"byteLength":576,
			"byteOffset":27440,
			"target":34962
		},
		{
			"buffer":0,
			"byteLength":576,
			"byteOffset":28016,
			"target":34962
		},
		{
			"buffer":0,
			"byteLength":384,
			"byteOffset":28592,
			"target":34962
		},
		{
			"buffer":0,
			"byteLength":288,
			"byteOffset":28976,
			"target":34963
		},
		{
			"buffer":0,
			"byteLength":288,
			"byteOffset":29264,
			"target":34962
		},
		{
			"buffer":0,
			"byteLength":288,
			"byteOffset":29552,
			"target":34962
		},
		{
			"buffer":0,
			"byteLength":192,
			"byteOffset":29840,
			"target":34962
		},
		{
			"buffer":0,
			"byteLength":72,
			"byteOffset":30032,
			"target":34963
		},
		{
			"buffer":0,
			"byteLength":1656,
			"byteOffset":30104,
			"target":34962
		},
		{
			"buffer":0,
			"byteLength":1656,
			"byteOffset":31760,
			"target":34962
		},
		{
			"buffer":0,
			"byteLength":1104,
			"byteOffset":33416,
			"target":34962
		},
		{
			"buffer":0,
			"byteLength":576,
			"byteOffset":34520,
			"target":34963
		},
		{
			"buffer":0,
			"byteLength":1656,
			"byteOffset":35096,
			"target":34962
		},
		{
			"buffer":0,
			"byteLength":1656,
			"byteOffset":36752,
			"target":34962
		},
		{
			"buffer":0,
			"byteLength":1104,
			"byteOffset":38408,
			"target":34962
		},
		{
			"buffer":0,
			"byteLength":588,
			"byteOffset":39512,
			"target":34962
		},
		{
			"buffer":0,
			"byteLength":588,
			"byteOffset":40100,
			"target":34962
		},
		{
			"buffer":0,
			"byteLength":392,
			"byteOffset":40688,
			"target":34962
		},
		{
			"buffer":0,
			"byteLength":480,
			"byteOffset":41080,
			"target":34963
		}
	],
	"samplers":[
		{
			"magFilter":9729,
			"minFilter":9987
		}
	],
	"buffers":[
		{
			"byteLength":41560,
			"uri":"WindmuehleExport.bin"
		}
	]
}
